<mxfile host="app.diagrams.net" modified="2023-09-04T19:12:49.524Z" agent="Mozilla/5.0 (Windows NT 10.0; Win64; x64) AppleWebKit/537.36 (KHTML, like Gecko) Chrome/116.0.0.0 Safari/537.36 Edg/116.0.1938.69" etag="4gA2g5sGjeUezzXblSJU" version="21.7.2" type="github">
  <diagram name="第 1 页" id="3kewB5aiZiIA5oS6hmrj">
    <mxGraphModel dx="2121" dy="1907" grid="1" gridSize="13" guides="1" tooltips="1" connect="1" arrows="1" fold="1" page="1" pageScale="1" pageWidth="827" pageHeight="1169" math="0" shadow="0">
      <root>
        <mxCell id="0" />
        <mxCell id="1" parent="0" />
        <mxCell id="YQzv4ZbEYSbGBDcgw7HL-4" value="" style="outlineConnect=0;fontColor=#232F3E;gradientColor=none;fillColor=#505050;strokeColor=none;dashed=0;verticalLabelPosition=bottom;verticalAlign=top;align=center;html=1;fontSize=12;fontStyle=0;aspect=fixed;pointerEvents=1;shape=mxgraph.aws4.documents;rounded=1;" parent="1" vertex="1">
          <mxGeometry x="-200" y="225.69" width="70" height="85.31" as="geometry" />
        </mxCell>
        <mxCell id="YQzv4ZbEYSbGBDcgw7HL-5" value="LLM" style="outlineConnect=0;fontColor=#505050;gradientColor=none;fillColor=#505050;strokeColor=none;dashed=0;verticalLabelPosition=bottom;verticalAlign=top;align=center;html=1;fontSize=12;fontStyle=0;aspect=fixed;pointerEvents=1;shape=mxgraph.aws4.sagemaker_model;rounded=1;" parent="1" vertex="1">
          <mxGeometry x="20" y="369.49" width="78" height="78" as="geometry" />
        </mxCell>
        <mxCell id="YQzv4ZbEYSbGBDcgw7HL-6" value="" style="pointerEvents=1;shadow=0;dashed=0;html=1;strokeColor=none;fillColor=#505050;labelPosition=center;verticalLabelPosition=bottom;verticalAlign=top;outlineConnect=0;align=center;shape=mxgraph.office.communications.discovery_search_mailbox;rounded=1;" parent="1" vertex="1">
          <mxGeometry x="163" y="494" width="55" height="49" as="geometry" />
        </mxCell>
        <mxCell id="YQzv4ZbEYSbGBDcgw7HL-7" value="text chunking database" style="shadow=0;dashed=0;html=1;strokeColor=none;fillColor=#505050;labelPosition=center;verticalLabelPosition=bottom;verticalAlign=top;outlineConnect=0;align=center;shape=mxgraph.office.databases.mailbox_database;rounded=1;" parent="1" vertex="1">
          <mxGeometry x="306" y="339.49" width="53" height="55" as="geometry" />
        </mxCell>
        <mxCell id="YQzv4ZbEYSbGBDcgw7HL-24" value="" style="group;rounded=1;" parent="1" vertex="1" connectable="0">
          <mxGeometry x="306" y="237.49" width="49" height="53" as="geometry" />
        </mxCell>
        <mxCell id="YQzv4ZbEYSbGBDcgw7HL-15" value="picture database" style="shadow=0;dashed=0;html=1;strokeColor=none;fillColor=#505050;labelPosition=center;verticalLabelPosition=bottom;verticalAlign=top;outlineConnect=0;align=center;shape=mxgraph.office.databases.application_store;rounded=1;" parent="YQzv4ZbEYSbGBDcgw7HL-24" vertex="1">
          <mxGeometry width="49" height="53" as="geometry" />
        </mxCell>
        <mxCell id="YQzv4ZbEYSbGBDcgw7HL-23" value="" style="group;aspect=fixed;rounded=1;" parent="YQzv4ZbEYSbGBDcgw7HL-24" vertex="1" connectable="0">
          <mxGeometry x="30" y="37" width="8" height="5.2" as="geometry" />
        </mxCell>
        <mxCell id="YQzv4ZbEYSbGBDcgw7HL-17" value="" style="endArrow=none;html=1;fontColor=#66FFFF;fontStyle=1;rounded=1;strokeWidth=2;strokeColor=#505050;" parent="YQzv4ZbEYSbGBDcgw7HL-23" edge="1">
          <mxGeometry width="50" height="50" relative="1" as="geometry">
            <mxPoint x="-8" y="10.800000000000002" as="sourcePoint" />
            <mxPoint x="8" y="10.800000000000002" as="targetPoint" />
            <Array as="points">
              <mxPoint y="2.8000000000000007" />
            </Array>
          </mxGeometry>
        </mxCell>
        <mxCell id="YQzv4ZbEYSbGBDcgw7HL-20" value="" style="ellipse;whiteSpace=wrap;html=1;aspect=fixed;labelBackgroundColor=none;labelBorderColor=none;fontColor=none;strokeColor=#505050;noLabel=1;container=0;rounded=1;" parent="YQzv4ZbEYSbGBDcgw7HL-23" vertex="1">
          <mxGeometry x="4.799999999999999" width="3.1974110032362457" height="3.1974110032362457" as="geometry" />
        </mxCell>
        <mxCell id="YQzv4ZbEYSbGBDcgw7HL-21" value="" style="endArrow=none;html=1;fontColor=#66FFFF;fontStyle=1;rounded=1;strokeWidth=2;strokeColor=#505050;" parent="YQzv4ZbEYSbGBDcgw7HL-23" edge="1">
          <mxGeometry width="50" height="50" relative="1" as="geometry">
            <mxPoint x="4.799999999999999" y="8.400000000000002" as="sourcePoint" />
            <mxPoint x="16" y="13.200000000000003" as="targetPoint" />
            <Array as="points">
              <mxPoint x="8" y="5.200000000000002" />
            </Array>
          </mxGeometry>
        </mxCell>
        <mxCell id="k2eFX_ad8c-FkVN4jiXm-15" value="" style="edgeStyle=orthogonalEdgeStyle;rounded=1;orthogonalLoop=1;jettySize=auto;html=1;strokeColor=#505050;strokeWidth=2;fontColor=#505050;endArrow=none;endFill=0;" parent="1" edge="1">
          <mxGeometry relative="1" as="geometry">
            <mxPoint x="200" y="268" as="sourcePoint" />
            <mxPoint x="250" y="382" as="targetPoint" />
            <Array as="points">
              <mxPoint x="230" y="268" />
              <mxPoint x="230" y="382" />
            </Array>
          </mxGeometry>
        </mxCell>
        <mxCell id="k2eFX_ad8c-FkVN4jiXm-2" value="" style="endArrow=classic;html=1;rounded=1;strokeColor=#505050;strokeWidth=2;fontColor=none;entryX=0;entryY=0.5;entryDx=0;entryDy=0;" parent="1" edge="1">
          <mxGeometry width="50" height="50" relative="1" as="geometry">
            <mxPoint x="-110" y="253" as="sourcePoint" />
            <mxPoint x="89.99999999999977" y="253" as="targetPoint" />
          </mxGeometry>
        </mxCell>
        <mxCell id="k2eFX_ad8c-FkVN4jiXm-3" value="" style="endArrow=classic;html=1;rounded=1;strokeColor=#505050;strokeWidth=2;fontColor=none;" parent="1" edge="1">
          <mxGeometry width="50" height="50" relative="1" as="geometry">
            <mxPoint x="60" y="359" as="sourcePoint" />
            <mxPoint x="91" y="268" as="targetPoint" />
            <Array as="points">
              <mxPoint x="60" y="268.49" />
            </Array>
          </mxGeometry>
        </mxCell>
        <mxCell id="k2eFX_ad8c-FkVN4jiXm-8" value="" style="shape=image;html=1;verticalAlign=top;verticalLabelPosition=bottom;labelBackgroundColor=#ffffff;imageAspect=0;aspect=fixed;image=https://cdn4.iconfinder.com/data/icons/ionicons/512/icon-link-128.png;labelBorderColor=none;strokeColor=#505050;fontColor=#505050;fillColor=#505050;gradientColor=default;opacity=70;rounded=1;" parent="1" vertex="1">
          <mxGeometry x="300" y="302" width="48" height="48" as="geometry" />
        </mxCell>
        <mxCell id="k2eFX_ad8c-FkVN4jiXm-10" value="vector database" style="shadow=0;dashed=0;html=1;strokeColor=none;fillColor=#505050;labelPosition=center;verticalLabelPosition=bottom;verticalAlign=top;outlineConnect=0;align=center;shape=mxgraph.office.databases.database_mini_2;labelBackgroundColor=none;labelBorderColor=none;fontColor=#505050;rounded=1;" parent="1" vertex="1">
          <mxGeometry x="306.5" y="429.49" width="39.5" height="50.51" as="geometry" />
        </mxCell>
        <mxCell id="k2eFX_ad8c-FkVN4jiXm-17" value="" style="shape=curlyBracket;whiteSpace=wrap;html=1;rounded=1;labelPosition=left;verticalLabelPosition=middle;align=right;verticalAlign=middle;labelBackgroundColor=none;labelBorderColor=none;strokeColor=#505050;fontColor=#505050;fillColor=#505050;gradientColor=default;strokeWidth=3;" parent="1" vertex="1">
          <mxGeometry x="250" y="274.49" width="20" height="215.51" as="geometry" />
        </mxCell>
        <mxCell id="k2eFX_ad8c-FkVN4jiXm-19" value="text to vector" style="outlineConnect=0;fontColor=#232F3E;gradientColor=none;fillColor=#505050;strokeColor=none;dashed=0;verticalLabelPosition=bottom;verticalAlign=top;align=center;html=1;fontSize=12;fontStyle=0;aspect=fixed;pointerEvents=1;shape=mxgraph.aws4.braket_state_vector;labelBackgroundColor=none;labelBorderColor=none;strokeWidth=3;rounded=1;" parent="1" vertex="1">
          <mxGeometry x="-107" y="370.24" width="76.76" height="76.76" as="geometry" />
        </mxCell>
        <mxCell id="k2eFX_ad8c-FkVN4jiXm-25" value="" style="endArrow=none;html=1;rounded=1;strokeColor=#505050;strokeWidth=2;fontColor=none;endFill=0;" parent="1" edge="1">
          <mxGeometry width="50" height="50" relative="1" as="geometry">
            <mxPoint x="-83.85689075630228" y="357.49" as="sourcePoint" />
            <mxPoint x="59" y="268" as="targetPoint" />
            <Array as="points">
              <mxPoint x="-83.63" y="267.49" />
            </Array>
          </mxGeometry>
        </mxCell>
        <mxCell id="k2eFX_ad8c-FkVN4jiXm-78" style="edgeStyle=orthogonalEdgeStyle;rounded=1;orthogonalLoop=1;jettySize=auto;html=1;strokeWidth=3;fontColor=#505050;endArrow=classicThin;endFill=1;fillColor=#1ba1e2;strokeColor=#006EAF;" parent="1" source="k2eFX_ad8c-FkVN4jiXm-35" edge="1">
          <mxGeometry relative="1" as="geometry">
            <mxPoint x="70" y="-280" as="targetPoint" />
            <Array as="points">
              <mxPoint x="-72" y="-280" />
            </Array>
          </mxGeometry>
        </mxCell>
        <mxCell id="k2eFX_ad8c-FkVN4jiXm-79" style="edgeStyle=orthogonalEdgeStyle;rounded=1;orthogonalLoop=1;jettySize=auto;html=1;strokeWidth=3;fontColor=#505050;endArrow=classicThin;endFill=1;fillColor=#1ba1e2;strokeColor=#006EAF;" parent="1" source="k2eFX_ad8c-FkVN4jiXm-35" edge="1">
          <mxGeometry relative="1" as="geometry">
            <mxPoint x="70" y="-180" as="targetPoint" />
            <Array as="points">
              <mxPoint x="-72" y="-180" />
            </Array>
          </mxGeometry>
        </mxCell>
        <mxCell id="k2eFX_ad8c-FkVN4jiXm-35" value="" style="outlineConnect=0;fontColor=#232F3E;gradientColor=none;fillColor=#505050;strokeColor=none;dashed=0;verticalLabelPosition=bottom;verticalAlign=top;align=center;html=1;fontSize=12;fontStyle=0;aspect=fixed;pointerEvents=1;shape=mxgraph.aws4.documents;rounded=1;strokeWidth=3;" parent="1" vertex="1">
          <mxGeometry x="-107" y="-436" width="70" height="85.31" as="geometry" />
        </mxCell>
        <mxCell id="k2eFX_ad8c-FkVN4jiXm-45" value="" style="editableCssRules=.*;shape=image;verticalLabelPosition=bottom;labelBackgroundColor=#ffffff;verticalAlign=top;aspect=fixed;imageAspect=0;image=data:image/svg+xml,PHN2ZyB4bWxucz0iaHR0cDovL3d3dy53My5vcmcvMjAwMC9zdmciIHhtbG5zOnY9Imh0dHBzOi8vdmVjdGEuaW8vbmFubyIgd2lkdGg9IjIwIiBoZWlnaHQ9IjE2IiB2aWV3Qm94PSIwIDAgMjAgMTYiPiYjeGE7CTxzdHlsZSB0eXBlPSJ0ZXh0L2NzcyI+LnN0MCB7IGZpbGw6IHJnYig4MCwgODAsIDgwKTsgfSAuc3QxIHsgZmlsbDogcmdiKDgwLCA4MCwgODApOyB9IC5zdDIgeyBmaWxsOiByZ2IoODAsIDgwLCA4MCk7IH0gPC9zdHlsZT4mI3hhOwk8cGF0aCBjbGFzcz0ic3QwIiBkPSJNMTUgMmgzdjEyaC0zdjJoMyAydi0yVjIgMGgtMi0zeiIvPiYjeGE7CTxwYXRoIGNsYXNzPSJzdDEiIGQ9Ik0xOCAydjFsMi0xem0yIDEydi0xbC0yIDF6Ii8+JiN4YTsJPHBhdGggY2xhc3M9InN0MCIgZD0iTTUgMTRIMlYyaDNWMEgyIDB2MiAxMiAyaDIgM3oiLz4mI3hhOwk8cGF0aCBjbGFzcz0ic3QxIiBkPSJNMCAxNHYtMWwyIDF6TTIgMnYxTDAgMnoiLz4mI3hhOwk8cGF0aCBjbGFzcz0ic3QyIiBkPSJNNSA3aDEwdjJINXptMCAzaDEwdjJINXptMC02aDEwdjJINXoiLz4mI3hhOzwvc3ZnPg==;labelBorderColor=none;strokeColor=#505050;strokeWidth=3;fontColor=#505050;fillColor=#505050;gradientColor=default;rounded=1;" parent="1" vertex="1">
          <mxGeometry x="250" y="-427.34999999999997" width="85" height="68" as="geometry" />
        </mxCell>
        <mxCell id="k2eFX_ad8c-FkVN4jiXm-48" value="" style="endArrow=classicThin;html=1;rounded=1;strokeColor=#505050;strokeWidth=3;fontColor=#505050;endFill=1;" parent="1" edge="1">
          <mxGeometry width="50" height="50" relative="1" as="geometry">
            <mxPoint x="-11" y="-390" as="sourcePoint" />
            <mxPoint x="70" y="-390" as="targetPoint" />
          </mxGeometry>
        </mxCell>
        <mxCell id="k2eFX_ad8c-FkVN4jiXm-50" value="" style="outlineConnect=0;dashed=0;verticalLabelPosition=bottom;verticalAlign=top;align=center;html=1;fontSize=12;fontStyle=0;aspect=fixed;pointerEvents=1;shape=mxgraph.aws4.rekognition_image;labelBackgroundColor=none;labelBorderColor=none;strokeWidth=3;fillColor=#1ba1e2;fontColor=#ffffff;strokeColor=#006EAF;rounded=1;" parent="1" vertex="1">
          <mxGeometry x="84" y="-308" width="61" height="61.79" as="geometry" />
        </mxCell>
        <mxCell id="k2eFX_ad8c-FkVN4jiXm-52" value="" style="endArrow=classic;html=1;rounded=1;strokeColor=#505050;strokeWidth=3;fontColor=#505050;" parent="1" edge="1">
          <mxGeometry width="50" height="50" relative="1" as="geometry">
            <mxPoint x="164" y="-390.46" as="sourcePoint" />
            <mxPoint x="245" y="-390.46" as="targetPoint" />
          </mxGeometry>
        </mxCell>
        <mxCell id="k2eFX_ad8c-FkVN4jiXm-56" value="" style="outlineConnect=0;fontColor=#232F3E;gradientColor=none;fillColor=#505050;strokeColor=none;dashed=0;verticalLabelPosition=bottom;verticalAlign=top;align=center;html=1;fontSize=12;fontStyle=0;aspect=fixed;pointerEvents=1;shape=mxgraph.aws4.sagemaker_train;labelBackgroundColor=none;labelBorderColor=none;strokeWidth=3;rounded=1;" parent="1" vertex="1">
          <mxGeometry x="85" y="-428.84000000000003" width="78" height="65" as="geometry" />
        </mxCell>
        <mxCell id="k2eFX_ad8c-FkVN4jiXm-102" style="edgeStyle=orthogonalEdgeStyle;rounded=1;orthogonalLoop=1;jettySize=auto;html=1;strokeColor=#006EAF;strokeWidth=3;fontColor=#505050;endArrow=classicThin;endFill=1;fillColor=#1ba1e2;" parent="1" edge="1">
          <mxGeometry relative="1" as="geometry">
            <mxPoint x="493.3333333333335" y="-360.06443694149925" as="sourcePoint" />
            <mxPoint x="625" y="-276.9999999999998" as="targetPoint" />
            <Array as="points">
              <mxPoint x="493" y="-277" />
            </Array>
          </mxGeometry>
        </mxCell>
        <mxCell id="k2eFX_ad8c-FkVN4jiXm-103" style="edgeStyle=orthogonalEdgeStyle;rounded=1;orthogonalLoop=1;jettySize=auto;html=1;strokeColor=#006EAF;strokeWidth=3;fontColor=#505050;endArrow=classicThin;endFill=1;fillColor=#1ba1e2;" parent="1" source="k2eFX_ad8c-FkVN4jiXm-70" target="k2eFX_ad8c-FkVN4jiXm-96" edge="1">
          <mxGeometry relative="1" as="geometry">
            <Array as="points">
              <mxPoint x="493" y="-169" />
            </Array>
          </mxGeometry>
        </mxCell>
        <mxCell id="k2eFX_ad8c-FkVN4jiXm-70" value="text to vector" style="outlineConnect=0;dashed=0;verticalLabelPosition=bottom;verticalAlign=top;align=center;html=1;fontSize=12;fontStyle=0;aspect=fixed;pointerEvents=1;shape=mxgraph.aws4.braket_state_vector;labelBackgroundColor=none;labelBorderColor=none;strokeWidth=3;fillColor=#505050;fontColor=#ffffff;strokeColor=none;rounded=1;" parent="1" vertex="1">
          <mxGeometry x="455" y="-429" width="76.76" height="76.76" as="geometry" />
        </mxCell>
        <mxCell id="k2eFX_ad8c-FkVN4jiXm-88" style="edgeStyle=orthogonalEdgeStyle;rounded=1;orthogonalLoop=1;jettySize=auto;html=1;strokeColor=#006EAF;strokeWidth=3;fontColor=#505050;endArrow=classicThin;endFill=1;fillColor=#1ba1e2;" parent="1" edge="1">
          <mxGeometry relative="1" as="geometry">
            <mxPoint x="344" y="-275" as="sourcePoint" />
            <mxPoint x="435" y="-390" as="targetPoint" />
            <Array as="points">
              <mxPoint x="383" y="-275" />
              <mxPoint x="383" y="-390" />
              <mxPoint x="435" y="-390" />
            </Array>
          </mxGeometry>
        </mxCell>
        <mxCell id="k2eFX_ad8c-FkVN4jiXm-74" value="" style="endArrow=classicThin;html=1;rounded=1;strokeColor=#505050;strokeWidth=3;fontColor=#505050;endFill=1;" parent="1" edge="1">
          <mxGeometry width="50" height="50" relative="1" as="geometry">
            <mxPoint x="355" y="-402.99999999999994" as="sourcePoint" />
            <mxPoint x="436" y="-402.99999999999994" as="targetPoint" />
          </mxGeometry>
        </mxCell>
        <mxCell id="k2eFX_ad8c-FkVN4jiXm-80" value="" style="group;rounded=1;strokeWidth=3;" parent="1" vertex="1" connectable="0">
          <mxGeometry x="89" y="-208" width="70" height="70" as="geometry" />
        </mxCell>
        <mxCell id="k2eFX_ad8c-FkVN4jiXm-61" value="" style="shadow=0;dashed=0;html=1;labelPosition=center;verticalLabelPosition=bottom;verticalAlign=top;align=center;outlineConnect=0;shape=mxgraph.veeam.table;labelBackgroundColor=none;labelBorderColor=none;strokeWidth=3;aspect=fixed;fillColor=#1ba1e2;fontColor=#ffffff;strokeColor=#006EAF;rounded=1;" parent="k2eFX_ad8c-FkVN4jiXm-80" vertex="1">
          <mxGeometry x="10.996666666666613" y="10.338888888888846" width="31.73333333333333" height="31.73333333333333" as="geometry" />
        </mxCell>
        <mxCell id="k2eFX_ad8c-FkVN4jiXm-62" value="" style="shadow=0;dashed=0;html=1;labelPosition=center;verticalLabelPosition=bottom;verticalAlign=top;align=center;outlineConnect=0;shape=mxgraph.veeam.magnifying_glass;pointerEvents=1;labelBackgroundColor=none;labelBorderColor=none;strokeWidth=3;aspect=fixed;fillColor=none;fontColor=#ffffff;strokeColor=#006EAF;rounded=1;" parent="k2eFX_ad8c-FkVN4jiXm-80" vertex="1">
          <mxGeometry width="70" height="70" as="geometry" />
        </mxCell>
        <mxCell id="k2eFX_ad8c-FkVN4jiXm-81" value="" style="endArrow=classic;html=1;rounded=1;strokeColor=#505050;strokeWidth=3;fontColor=#505050;" parent="1" edge="1">
          <mxGeometry width="50" height="50" relative="1" as="geometry">
            <mxPoint x="538" y="-393.96999999999997" as="sourcePoint" />
            <mxPoint x="619" y="-393.96999999999997" as="targetPoint" />
          </mxGeometry>
        </mxCell>
        <mxCell id="k2eFX_ad8c-FkVN4jiXm-90" style="edgeStyle=orthogonalEdgeStyle;rounded=1;orthogonalLoop=1;jettySize=auto;html=1;strokeColor=#006EAF;strokeWidth=3;fontColor=#505050;endArrow=classicThin;endFill=1;fillColor=#1ba1e2;" parent="1" edge="1">
          <mxGeometry relative="1" as="geometry">
            <mxPoint x="338" y="-173" as="sourcePoint" />
            <mxPoint x="436" y="-377" as="targetPoint" />
            <Array as="points">
              <mxPoint x="403" y="-173" />
              <mxPoint x="403" y="-377" />
            </Array>
          </mxGeometry>
        </mxCell>
        <mxCell id="k2eFX_ad8c-FkVN4jiXm-86" value="" style="endArrow=classic;html=1;rounded=1;strokeColor=#006EAF;strokeWidth=3;fontColor=#505050;fillColor=#1ba1e2;" parent="1" edge="1">
          <mxGeometry width="50" height="50" relative="1" as="geometry">
            <mxPoint x="156" y="-277" as="sourcePoint" />
            <mxPoint x="250" y="-277" as="targetPoint" />
          </mxGeometry>
        </mxCell>
        <mxCell id="k2eFX_ad8c-FkVN4jiXm-87" value="" style="endArrow=classic;html=1;rounded=1;strokeColor=#006EAF;strokeWidth=3;fontColor=#505050;fillColor=#1ba1e2;" parent="1" edge="1">
          <mxGeometry width="50" height="50" relative="1" as="geometry">
            <mxPoint x="156" y="-174.35" as="sourcePoint" />
            <mxPoint x="250" y="-174.35" as="targetPoint" />
          </mxGeometry>
        </mxCell>
        <mxCell id="k2eFX_ad8c-FkVN4jiXm-93" value="" style="aspect=fixed;html=1;points=[];align=center;image;fontSize=12;image=img/lib/azure2/networking/Private_Link_Service.svg;rounded=1;shadow=0;glass=0;labelBackgroundColor=none;labelBorderColor=none;strokeColor=default;strokeWidth=3;fontColor=#505050;fillColor=#505050;gradientColor=default;" parent="1" vertex="1">
          <mxGeometry x="258" y="-292.31" width="69" height="40" as="geometry" />
        </mxCell>
        <mxCell id="k2eFX_ad8c-FkVN4jiXm-161" style="edgeStyle=orthogonalEdgeStyle;rounded=1;orthogonalLoop=1;jettySize=auto;html=1;endArrow=classicThin;endFill=1;fillColor=#1ba1e2;strokeColor=#006EAF;strokeWidth=3;" parent="1" source="k2eFX_ad8c-FkVN4jiXm-94" target="k2eFX_ad8c-FkVN4jiXm-156" edge="1">
          <mxGeometry relative="1" as="geometry">
            <Array as="points">
              <mxPoint x="754" y="-285" />
              <mxPoint x="754" y="3" />
            </Array>
          </mxGeometry>
        </mxCell>
        <mxCell id="k2eFX_ad8c-FkVN4jiXm-94" value="text chunking database" style="shadow=0;dashed=0;html=1;strokeColor=#006EAF;fillColor=#1ba1e2;labelPosition=center;verticalLabelPosition=bottom;verticalAlign=top;outlineConnect=0;align=center;shape=mxgraph.office.databases.mailbox_database;fontColor=#ffffff;rounded=1;strokeWidth=3;" parent="1" vertex="1">
          <mxGeometry x="625" y="-317" width="51" height="64.69" as="geometry" />
        </mxCell>
        <mxCell id="k2eFX_ad8c-FkVN4jiXm-95" value="" style="group;rounded=1;strokeWidth=3;" parent="1" vertex="1" connectable="0">
          <mxGeometry x="625" y="-208" width="51" height="65" as="geometry" />
        </mxCell>
        <mxCell id="k2eFX_ad8c-FkVN4jiXm-96" value="picture database" style="shadow=0;dashed=0;html=1;strokeColor=#006EAF;fillColor=#1ba1e2;labelPosition=center;verticalLabelPosition=bottom;verticalAlign=top;outlineConnect=0;align=center;shape=mxgraph.office.databases.application_store;fontColor=#ffffff;rounded=1;strokeWidth=3;" parent="k2eFX_ad8c-FkVN4jiXm-95" vertex="1">
          <mxGeometry width="51" height="65" as="geometry" />
        </mxCell>
        <mxCell id="k2eFX_ad8c-FkVN4jiXm-97" value="" style="group;aspect=fixed;rounded=1;strokeWidth=3;" parent="k2eFX_ad8c-FkVN4jiXm-95" vertex="1" connectable="0">
          <mxGeometry x="31.224489795918362" y="45.37735849056604" width="6.158490566037735" height="4.003018867924529" as="geometry" />
        </mxCell>
        <mxCell id="k2eFX_ad8c-FkVN4jiXm-98" value="" style="endArrow=none;html=1;fontColor=#66FFFF;fontStyle=1;rounded=1;strokeWidth=3;strokeColor=#006EAF;fillColor=#1ba1e2;" parent="k2eFX_ad8c-FkVN4jiXm-97" edge="1">
          <mxGeometry width="50" height="50" relative="1" as="geometry">
            <mxPoint x="-6.158490566037735" y="8.313962264150945" as="sourcePoint" />
            <mxPoint x="6.158490566037735" y="8.313962264150945" as="targetPoint" />
            <Array as="points">
              <mxPoint y="2.1554716981132085" />
            </Array>
          </mxGeometry>
        </mxCell>
        <mxCell id="k2eFX_ad8c-FkVN4jiXm-99" value="" style="ellipse;whiteSpace=wrap;html=1;aspect=fixed;labelBackgroundColor=none;labelBorderColor=none;noLabel=1;container=0;fillColor=none;fontColor=#ffffff;strokeColor=#006EAF;rounded=1;strokeWidth=3;" parent="k2eFX_ad8c-FkVN4jiXm-97" vertex="1">
          <mxGeometry x="3.6950943396226408" width="2.4614031873969586" height="2.4614031873969586" as="geometry" />
        </mxCell>
        <mxCell id="k2eFX_ad8c-FkVN4jiXm-100" value="" style="endArrow=none;html=1;fontColor=#66FFFF;fontStyle=1;rounded=1;strokeWidth=3;strokeColor=#006EAF;fillColor=#1ba1e2;" parent="k2eFX_ad8c-FkVN4jiXm-97" edge="1">
          <mxGeometry width="50" height="50" relative="1" as="geometry">
            <mxPoint x="3.6950943396226408" y="6.4664150943396255" as="sourcePoint" />
            <mxPoint x="12.31698113207547" y="10.16150943396227" as="targetPoint" />
            <Array as="points">
              <mxPoint x="6.158490566037735" y="4.00301886792453" />
            </Array>
          </mxGeometry>
        </mxCell>
        <mxCell id="k2eFX_ad8c-FkVN4jiXm-114" value="" style="outlineConnect=0;fontColor=#232F3E;gradientColor=none;fillColor=#505050;strokeColor=none;dashed=0;verticalLabelPosition=bottom;verticalAlign=top;align=center;html=1;fontSize=12;fontStyle=0;aspect=fixed;pointerEvents=1;shape=mxgraph.aws4.iot_greengrass_stream_manager;rounded=1;shadow=0;glass=0;labelBackgroundColor=none;labelBorderColor=none;strokeWidth=3;" parent="1" vertex="1">
          <mxGeometry x="100" y="230.49" width="78" height="60" as="geometry" />
        </mxCell>
        <mxCell id="k2eFX_ad8c-FkVN4jiXm-124" value="" style="endArrow=none;html=1;rounded=1;strokeColor=#505050;strokeWidth=3;fontColor=#505050;dashed=1;" parent="1" edge="1">
          <mxGeometry width="50" height="50" relative="1" as="geometry">
            <mxPoint x="-172" y="-82.96000000000001" as="sourcePoint" />
            <mxPoint x="273" y="-83" as="targetPoint" />
          </mxGeometry>
        </mxCell>
        <mxCell id="k2eFX_ad8c-FkVN4jiXm-142" value="" style="endArrow=none;html=1;rounded=1;strokeColor=#505050;strokeWidth=3;fontColor=#505050;dashed=1;" parent="1" edge="1">
          <mxGeometry width="50" height="50" relative="1" as="geometry">
            <mxPoint x="312" y="-83" as="sourcePoint" />
            <mxPoint x="689" y="-83" as="targetPoint" />
          </mxGeometry>
        </mxCell>
        <mxCell id="k2eFX_ad8c-FkVN4jiXm-166" style="edgeStyle=orthogonalEdgeStyle;rounded=1;orthogonalLoop=1;jettySize=auto;html=1;endArrow=classicThin;endFill=1;fillColor=#1ba1e2;strokeColor=#006EAF;strokeWidth=3;" parent="1" source="k2eFX_ad8c-FkVN4jiXm-143" edge="1">
          <mxGeometry relative="1" as="geometry">
            <mxPoint y="101" as="targetPoint" />
          </mxGeometry>
        </mxCell>
        <mxCell id="k2eFX_ad8c-FkVN4jiXm-143" value="" style="sketch=0;outlineConnect=0;fontColor=#232F3E;gradientColor=none;fillColor=#505050;strokeColor=none;dashed=0;verticalLabelPosition=bottom;verticalAlign=top;align=center;html=1;fontSize=12;fontStyle=0;aspect=fixed;pointerEvents=1;shape=mxgraph.aws4.sagemaker_model;rounded=1;strokeWidth=3;" parent="1" vertex="1">
          <mxGeometry x="255.5" y="64.99999999999999" width="71.5" height="71.5" as="geometry" />
        </mxCell>
        <mxCell id="k2eFX_ad8c-FkVN4jiXm-147" value="" style="endArrow=classic;html=1;rounded=1;strokeColor=#006EAF;fontColor=#505050;strokeWidth=3;fillColor=#1ba1e2;" parent="1" edge="1">
          <mxGeometry width="50" height="50" relative="1" as="geometry">
            <mxPoint x="292" y="52" as="sourcePoint" />
            <mxPoint x="292" y="-144" as="targetPoint" />
            <Array as="points">
              <mxPoint x="292" y="-145" />
            </Array>
          </mxGeometry>
        </mxCell>
        <mxCell id="k2eFX_ad8c-FkVN4jiXm-148" value="" style="group;strokeWidth=3;" parent="1" vertex="1" connectable="0">
          <mxGeometry x="255" y="-221" width="62.610000000000014" height="65" as="geometry" />
        </mxCell>
        <mxCell id="k2eFX_ad8c-FkVN4jiXm-110" value="" style="html=1;aspect=fixed;strokeColor=none;shadow=0;align=center;verticalAlign=top;fillColor=#3B8DF1;shape=mxgraph.gcp2.scale;rounded=1;glass=0;labelBackgroundColor=none;labelBorderColor=none;strokeWidth=3;fontColor=#505050;" parent="k2eFX_ad8c-FkVN4jiXm-148" vertex="1">
          <mxGeometry width="31.61" height="29.08" as="geometry" />
        </mxCell>
        <mxCell id="k2eFX_ad8c-FkVN4jiXm-111" value="" style="aspect=fixed;html=1;points=[];align=center;image;fontSize=12;image=img/lib/azure2/ai_machine_learning/Bot_Services.svg;rounded=1;shadow=0;glass=0;labelBackgroundColor=none;labelBorderColor=none;strokeColor=default;strokeWidth=3;fontColor=#505050;fillColor=none;gradientColor=default;" parent="k2eFX_ad8c-FkVN4jiXm-148" vertex="1">
          <mxGeometry x="10.610000000000014" y="12.999999999999996" width="52" height="52" as="geometry" />
        </mxCell>
        <mxCell id="k2eFX_ad8c-FkVN4jiXm-149" value="" style="sketch=0;outlineConnect=0;fontColor=#232F3E;gradientColor=none;fillColor=#505050;strokeColor=none;dashed=0;verticalLabelPosition=bottom;verticalAlign=top;align=center;html=1;fontSize=12;fontStyle=0;aspect=fixed;pointerEvents=1;shape=mxgraph.aws4.question;rounded=1;strokeWidth=3;" parent="1" vertex="1">
          <mxGeometry x="-89.07" y="-50" width="40.91" height="77.83" as="geometry" />
        </mxCell>
        <mxCell id="k2eFX_ad8c-FkVN4jiXm-151" value="" style="endArrow=none;html=1;rounded=1;strokeColor=#505050;strokeWidth=3;fontColor=#505050;endFill=0;" parent="1" edge="1">
          <mxGeometry width="50" height="50" relative="1" as="geometry">
            <mxPoint x="6" as="sourcePoint" />
            <mxPoint x="279" as="targetPoint" />
          </mxGeometry>
        </mxCell>
        <mxCell id="k2eFX_ad8c-FkVN4jiXm-153" value="" style="curved=1;endArrow=none;html=1;rounded=1;endFill=0;strokeColor=#505050;fontColor=#505050;strokeWidth=3;" parent="1" edge="1">
          <mxGeometry width="50" height="50" relative="1" as="geometry">
            <mxPoint x="278" as="sourcePoint" />
            <mxPoint x="305" as="targetPoint" />
            <Array as="points">
              <mxPoint x="292" y="-13" />
            </Array>
          </mxGeometry>
        </mxCell>
        <mxCell id="k2eFX_ad8c-FkVN4jiXm-154" value="" style="endArrow=classicThin;html=1;rounded=1;strokeColor=#505050;strokeWidth=3;fontColor=#505050;endFill=1;" parent="1" edge="1">
          <mxGeometry width="50" height="50" relative="1" as="geometry">
            <mxPoint x="304" as="sourcePoint" />
            <mxPoint x="442" as="targetPoint" />
          </mxGeometry>
        </mxCell>
        <mxCell id="k2eFX_ad8c-FkVN4jiXm-155" value="text to vector" style="outlineConnect=0;dashed=0;verticalLabelPosition=bottom;verticalAlign=top;align=center;html=1;fontSize=12;fontStyle=0;aspect=fixed;pointerEvents=1;shape=mxgraph.aws4.braket_state_vector;labelBackgroundColor=none;labelBorderColor=none;strokeWidth=3;fillColor=#505050;fontColor=#ffffff;strokeColor=none;rounded=1;" parent="1" vertex="1">
          <mxGeometry x="459" y="-35.05" width="76.76" height="76.76" as="geometry" />
        </mxCell>
        <mxCell id="k2eFX_ad8c-FkVN4jiXm-164" style="edgeStyle=orthogonalEdgeStyle;rounded=1;orthogonalLoop=1;jettySize=auto;html=1;endArrow=classicThin;endFill=1;fillColor=#1ba1e2;strokeColor=#006EAF;strokeWidth=3;" parent="1" source="k2eFX_ad8c-FkVN4jiXm-156" target="k2eFX_ad8c-FkVN4jiXm-143" edge="1">
          <mxGeometry relative="1" as="geometry">
            <Array as="points">
              <mxPoint x="653" y="101" />
            </Array>
          </mxGeometry>
        </mxCell>
        <mxCell id="k2eFX_ad8c-FkVN4jiXm-156" value="" style="pointerEvents=1;shadow=0;dashed=0;html=1;strokeColor=none;fillColor=#505050;labelPosition=center;verticalLabelPosition=bottom;verticalAlign=top;outlineConnect=0;align=center;shape=mxgraph.office.communications.discovery_search_mailbox;rounded=1;strokeWidth=3;" parent="1" vertex="1">
          <mxGeometry x="625" y="-21.169999999999987" width="55" height="49" as="geometry" />
        </mxCell>
        <mxCell id="k2eFX_ad8c-FkVN4jiXm-157" value="" style="endArrow=classicThin;html=1;rounded=1;strokeColor=#505050;strokeWidth=3;fontColor=#505050;endFill=1;" parent="1" edge="1">
          <mxGeometry width="50" height="50" relative="1" as="geometry">
            <mxPoint x="548" y="2.739999999999995" as="sourcePoint" />
            <mxPoint x="621" y="2.739999999999995" as="targetPoint" />
          </mxGeometry>
        </mxCell>
        <mxCell id="k2eFX_ad8c-FkVN4jiXm-160" style="edgeStyle=orthogonalEdgeStyle;rounded=1;orthogonalLoop=1;jettySize=auto;html=1;endArrow=classicThin;endFill=1;strokeWidth=3;" parent="1" source="k2eFX_ad8c-FkVN4jiXm-159" target="k2eFX_ad8c-FkVN4jiXm-156" edge="1">
          <mxGeometry relative="1" as="geometry">
            <Array as="points">
              <mxPoint x="767" y="-398" />
              <mxPoint x="767" y="3" />
            </Array>
          </mxGeometry>
        </mxCell>
        <mxCell id="k2eFX_ad8c-FkVN4jiXm-159" value="vector database" style="shadow=0;dashed=0;html=1;strokeColor=none;fillColor=#505050;labelPosition=center;verticalLabelPosition=bottom;verticalAlign=top;outlineConnect=0;align=center;shape=mxgraph.office.databases.database_mini_2;labelBackgroundColor=none;labelBorderColor=none;fontColor=#505050;rounded=1;strokeWidth=3;" parent="1" vertex="1">
          <mxGeometry x="623" y="-427.35" width="38" height="59.67" as="geometry" />
        </mxCell>
        <mxCell id="k2eFX_ad8c-FkVN4jiXm-162" style="edgeStyle=orthogonalEdgeStyle;rounded=1;orthogonalLoop=1;jettySize=auto;html=1;endArrow=classicThin;endFill=1;fillColor=#1ba1e2;strokeColor=#006EAF;strokeWidth=3;" parent="1" source="k2eFX_ad8c-FkVN4jiXm-96" target="k2eFX_ad8c-FkVN4jiXm-156" edge="1">
          <mxGeometry relative="1" as="geometry">
            <Array as="points">
              <mxPoint x="728" y="-175" />
              <mxPoint x="728" y="3" />
            </Array>
          </mxGeometry>
        </mxCell>
        <mxCell id="k2eFX_ad8c-FkVN4jiXm-179" value="" style="endArrow=none;html=1;rounded=1;strokeColor=#505050;strokeWidth=3;fontColor=#505050;dashed=1;" parent="1" edge="1">
          <mxGeometry width="50" height="50" relative="1" as="geometry">
            <mxPoint x="778" y="-84" as="sourcePoint" />
            <mxPoint x="817" y="-84" as="targetPoint" />
          </mxGeometry>
        </mxCell>
        <mxCell id="k2eFX_ad8c-FkVN4jiXm-182" value="" style="html=1;verticalLabelPosition=bottom;align=center;labelBackgroundColor=#ffffff;verticalAlign=top;strokeWidth=3;strokeColor=#0080F0;shadow=0;dashed=0;shape=mxgraph.ios7.icons.chat;rounded=1;labelBorderColor=none;fontColor=#b31919;fillColor=none;" parent="1" vertex="1">
          <mxGeometry x="-113.81" y="68.63" width="83.62" height="64.25" as="geometry" />
        </mxCell>
        <mxCell id="k2eFX_ad8c-FkVN4jiXm-183" style="edgeStyle=orthogonalEdgeStyle;rounded=1;orthogonalLoop=1;jettySize=auto;html=1;endArrow=classicThin;endFill=1;fillColor=#1ba1e2;strokeColor=#006EAF;strokeWidth=3;" parent="1" edge="1">
          <mxGeometry relative="1" as="geometry">
            <mxPoint x="256" y="101" as="sourcePoint" />
            <mxPoint y="101" as="targetPoint" />
          </mxGeometry>
        </mxCell>
        <mxCell id="k2eFX_ad8c-FkVN4jiXm-184" style="edgeStyle=orthogonalEdgeStyle;rounded=1;orthogonalLoop=1;jettySize=auto;html=1;endArrow=classicThin;endFill=1;fillColor=#1ba1e2;strokeColor=#006EAF;strokeWidth=3;" parent="1" edge="1">
          <mxGeometry relative="1" as="geometry">
            <mxPoint x="653" y="28" as="sourcePoint" />
            <mxPoint x="327" y="101" as="targetPoint" />
            <Array as="points">
              <mxPoint x="653" y="101" />
            </Array>
          </mxGeometry>
        </mxCell>
        <mxCell id="k2eFX_ad8c-FkVN4jiXm-185" style="edgeStyle=orthogonalEdgeStyle;rounded=1;orthogonalLoop=1;jettySize=auto;html=1;endArrow=classicThin;endFill=1;fillColor=#1ba1e2;strokeColor=#006EAF;strokeWidth=3;" parent="1" edge="1">
          <mxGeometry relative="1" as="geometry">
            <mxPoint x="676" y="-175" as="sourcePoint" />
            <mxPoint x="680" y="3" as="targetPoint" />
            <Array as="points">
              <mxPoint x="728" y="-175" />
              <mxPoint x="728" y="3" />
            </Array>
          </mxGeometry>
        </mxCell>
        <mxCell id="k2eFX_ad8c-FkVN4jiXm-186" style="edgeStyle=orthogonalEdgeStyle;rounded=1;orthogonalLoop=1;jettySize=auto;html=1;endArrow=classicThin;endFill=1;fillColor=#1ba1e2;strokeColor=#006EAF;strokeWidth=3;" parent="1" edge="1">
          <mxGeometry relative="1" as="geometry">
            <mxPoint x="676" y="-285" as="sourcePoint" />
            <mxPoint x="680" y="3" as="targetPoint" />
            <Array as="points">
              <mxPoint x="754" y="-285" />
              <mxPoint x="754" y="3" />
            </Array>
          </mxGeometry>
        </mxCell>
        <mxCell id="ILywXmg6eYzzN-MGtZ7e-29" value="" style="group;fontFamily=Times New Roman;fontStyle=1;labelBackgroundColor=none;fontColor=default;" vertex="1" connectable="0" parent="1">
          <mxGeometry x="-351" y="611" width="442" height="299" as="geometry" />
        </mxCell>
        <mxCell id="ILywXmg6eYzzN-MGtZ7e-13" value="" style="html=1;fillColor=#cccccc;strokeColor=none;shadow=0;fontSize=12;fontColor=none;align=left;fontStyle=1;whiteSpace=wrap;rounded=1;labelPosition=center;verticalLabelPosition=middle;verticalAlign=top;fontFamily=Times New Roman;labelBackgroundColor=none;noLabel=1;" vertex="1" parent="ILywXmg6eYzzN-MGtZ7e-29">
          <mxGeometry x="54.03351955307262" y="56.727272727272734" width="112.56983240223464" height="118.18181818181819" as="geometry" />
        </mxCell>
        <mxCell id="ILywXmg6eYzzN-MGtZ7e-14" value="" style="html=1;fillColor=#F5AB50;strokeColor=none;shadow=0;fontSize=12;fontColor=default;align=left;fontStyle=1;whiteSpace=wrap;rounded=1;labelPosition=center;verticalLabelPosition=middle;verticalAlign=top;fontFamily=Times New Roman;labelBackgroundColor=none;" vertex="1" parent="ILywXmg6eYzzN-MGtZ7e-29">
          <mxGeometry x="172.231843575419" y="56.727272727272734" width="112.56983240223464" height="118.18181818181819" as="geometry" />
        </mxCell>
        <mxCell id="ILywXmg6eYzzN-MGtZ7e-15" value="" style="html=1;fillColor=#ddab6e;strokeColor=none;shadow=0;fontSize=12;fontColor=default;align=left;fontStyle=1;whiteSpace=wrap;rounded=1;labelPosition=center;verticalLabelPosition=middle;verticalAlign=top;fontFamily=Times New Roman;labelBackgroundColor=none;" vertex="1" parent="ILywXmg6eYzzN-MGtZ7e-29">
          <mxGeometry x="290.4301675977654" y="56.727272727272734" width="112.56983240223464" height="118.18181818181819" as="geometry" />
        </mxCell>
        <mxCell id="ILywXmg6eYzzN-MGtZ7e-16" value="" style="html=1;fillColor=#cccccc;strokeColor=#666666;shadow=0;fontSize=12;align=left;fontStyle=1;whiteSpace=wrap;rounded=1;labelPosition=center;verticalLabelPosition=middle;verticalAlign=top;fontFamily=Times New Roman;labelBackgroundColor=none;gradientColor=none;" vertex="1" parent="ILywXmg6eYzzN-MGtZ7e-29">
          <mxGeometry x="54.03351955307262" y="180.81818181818184" width="112.56983240223464" height="118.18181818181819" as="geometry" />
        </mxCell>
        <mxCell id="ILywXmg6eYzzN-MGtZ7e-17" value="" style="html=1;fillColor=#ddab6e;strokeColor=none;shadow=0;fontSize=12;fontColor=default;align=left;fontStyle=1;whiteSpace=wrap;rounded=1;labelPosition=center;verticalLabelPosition=middle;verticalAlign=top;fontFamily=Times New Roman;labelBackgroundColor=none;" vertex="1" parent="ILywXmg6eYzzN-MGtZ7e-29">
          <mxGeometry x="172.231843575419" y="180.81818181818184" width="112.56983240223464" height="118.18181818181819" as="geometry" />
        </mxCell>
        <mxCell id="ILywXmg6eYzzN-MGtZ7e-18" value="" style="html=1;fillColor=#909090;strokeColor=none;shadow=0;fontSize=12;fontColor=default;align=left;fontStyle=1;whiteSpace=wrap;rounded=1;labelPosition=center;verticalLabelPosition=middle;verticalAlign=top;fontFamily=Times New Roman;labelBackgroundColor=none;" vertex="1" parent="ILywXmg6eYzzN-MGtZ7e-29">
          <mxGeometry x="290.4301675977654" y="180.81818181818184" width="112.56983240223464" height="118.18181818181819" as="geometry" />
        </mxCell>
        <mxCell id="ILywXmg6eYzzN-MGtZ7e-22" value="Comprehensive Document" style="html=1;fillColor=#f5ab50;strokeColor=none;shadow=0;fontSize=18;fontColor=default;align=center;fontStyle=1;whiteSpace=wrap;horizontal=0;rounded=1;movable=1;resizable=1;rotatable=1;deletable=1;editable=1;locked=0;connectable=1;fontFamily=Times New Roman;labelBackgroundColor=none;" vertex="1" parent="ILywXmg6eYzzN-MGtZ7e-29">
          <mxGeometry y="56.727272727272734" width="48.40502793296089" height="118.18181818181819" as="geometry" />
        </mxCell>
        <mxCell id="ILywXmg6eYzzN-MGtZ7e-23" value="Brief Document" style="html=1;fillColor=#CCCCCC;strokeColor=none;shadow=0;fontSize=18;fontColor=default;align=center;fontStyle=1;whiteSpace=wrap;horizontal=0;rounded=1;movable=1;resizable=1;rotatable=1;deletable=1;editable=1;locked=0;connectable=1;fontFamily=Times New Roman;labelBackgroundColor=none;" vertex="1" parent="ILywXmg6eYzzN-MGtZ7e-29">
          <mxGeometry y="180.81818181818184" width="48.40502793296089" height="118.18181818181819" as="geometry" />
        </mxCell>
        <mxCell id="ILywXmg6eYzzN-MGtZ7e-25" value="Plaintext" style="html=1;fillColor=#CCCCCC;strokeColor=none;shadow=0;fontSize=18;fontColor=default;align=center;fontStyle=1;whiteSpace=wrap;rounded=1;movable=1;resizable=1;rotatable=1;deletable=1;editable=1;locked=0;connectable=1;fontFamily=Times New Roman;labelBackgroundColor=none;" vertex="1" parent="ILywXmg6eYzzN-MGtZ7e-29">
          <mxGeometry x="54.03351955307262" width="112.56983240223464" height="50.81818181818182" as="geometry" />
        </mxCell>
        <mxCell id="ILywXmg6eYzzN-MGtZ7e-26" value="Mix media" style="html=1;fillColor=#f5ab50;strokeColor=none;shadow=0;fontSize=18;fontColor=default;align=center;fontStyle=1;whiteSpace=wrap;rounded=1;movable=1;resizable=1;rotatable=1;deletable=1;editable=1;locked=0;connectable=1;fontFamily=Times New Roman;labelBackgroundColor=none;" vertex="1" parent="ILywXmg6eYzzN-MGtZ7e-29">
          <mxGeometry x="172.231843575419" width="112.56983240223464" height="50.81818181818182" as="geometry" />
        </mxCell>
        <mxCell id="ILywXmg6eYzzN-MGtZ7e-27" value="Chart or Graph" style="html=1;fillColor=#CCCCCC;strokeColor=none;shadow=0;fontSize=18;fontColor=default;align=center;fontStyle=1;whiteSpace=wrap;rounded=1;movable=1;resizable=1;rotatable=1;deletable=1;editable=1;locked=0;connectable=1;fontFamily=Times New Roman;labelBackgroundColor=none;" vertex="1" parent="ILywXmg6eYzzN-MGtZ7e-29">
          <mxGeometry x="290.4301675977654" width="112.56983240223464" height="50.81818181818182" as="geometry" />
        </mxCell>
        <mxCell id="ILywXmg6eYzzN-MGtZ7e-30" value="&lt;h1&gt;&lt;font style=&quot;font-size: 21px;&quot;&gt;KBQA&lt;/font&gt;&lt;/h1&gt;&lt;p&gt;&lt;font style=&quot;font-size: 13px;&quot;&gt;Knowledge-Based Question Answering&lt;/font&gt;&lt;br&gt;&lt;/p&gt;" style="text;html=1;strokeColor=none;fillColor=none;spacing=5;spacingTop=-20;whiteSpace=wrap;overflow=hidden;rounded=0;fontFamily=Times New Roman;" vertex="1" parent="ILywXmg6eYzzN-MGtZ7e-29">
          <mxGeometry x="55.22999999999999" y="70.31999999999994" width="117" height="91" as="geometry" />
        </mxCell>
        <mxCell id="ILywXmg6eYzzN-MGtZ7e-38" value="&lt;h1&gt;&lt;font style=&quot;font-size: 21px;&quot;&gt;KB-DQA&lt;/font&gt;&lt;/h1&gt;&lt;p&gt;&lt;font style=&quot;font-size: 13px;&quot;&gt;Knowledge-Based&amp;nbsp;&lt;/font&gt;&lt;span style=&quot;font-size: 13px; background-color: initial;&quot;&gt;Document Question Answering&lt;/span&gt;&lt;/p&gt;" style="text;html=1;strokeColor=none;fillColor=none;spacing=5;spacingTop=-20;whiteSpace=wrap;overflow=hidden;rounded=0;fontFamily=Times New Roman;" vertex="1" parent="ILywXmg6eYzzN-MGtZ7e-29">
          <mxGeometry x="172.23" y="70.32" width="126.77" height="98.68" as="geometry" />
        </mxCell>
        <mxCell id="ILywXmg6eYzzN-MGtZ7e-40" value="&lt;h1&gt;&lt;font style=&quot;font-size: 21px;&quot;&gt;KB-VQA&lt;/font&gt;&lt;/h1&gt;&lt;p&gt;&lt;font style=&quot;font-size: 13px;&quot;&gt;Knowledge-Based Visual Question Answering&lt;/font&gt;&lt;br&gt;&lt;/p&gt;" style="text;html=1;strokeColor=none;fillColor=none;spacing=5;spacingTop=-20;whiteSpace=wrap;overflow=hidden;rounded=0;fontFamily=Times New Roman;" vertex="1" parent="ILywXmg6eYzzN-MGtZ7e-29">
          <mxGeometry x="289.23" y="70.32" width="117" height="98.68" as="geometry" />
        </mxCell>
        <mxCell id="ILywXmg6eYzzN-MGtZ7e-41" value="&lt;h1&gt;&lt;font style=&quot;font-size: 21px;&quot;&gt;DQA&lt;/font&gt;&lt;/h1&gt;&lt;p&gt;&lt;font style=&quot;font-size: 13px;&quot;&gt;Document Question Answering&lt;/font&gt;&lt;br&gt;&lt;/p&gt;" style="text;html=1;strokeColor=none;fillColor=none;spacing=5;spacingTop=-20;whiteSpace=wrap;overflow=hidden;rounded=0;fontFamily=Times New Roman;" vertex="1" parent="ILywXmg6eYzzN-MGtZ7e-29">
          <mxGeometry x="173.43" y="194.40999999999997" width="117" height="91" as="geometry" />
        </mxCell>
        <mxCell id="ILywXmg6eYzzN-MGtZ7e-42" value="&lt;h1&gt;&lt;font style=&quot;font-size: 21px;&quot;&gt;QA&lt;/font&gt;&lt;/h1&gt;&lt;p&gt;&lt;span style=&quot;font-size: 13px;&quot;&gt;Text Question Answering&lt;/span&gt;&lt;/p&gt;" style="text;html=1;strokeColor=none;fillColor=none;spacing=5;spacingTop=-20;whiteSpace=wrap;overflow=hidden;rounded=0;fontFamily=Times New Roman;" vertex="1" parent="ILywXmg6eYzzN-MGtZ7e-29">
          <mxGeometry x="55.23000000000002" y="194.40999999999997" width="117" height="91" as="geometry" />
        </mxCell>
        <mxCell id="ILywXmg6eYzzN-MGtZ7e-43" value="&lt;h1&gt;&lt;font style=&quot;font-size: 21px;&quot;&gt;DocVQA&lt;/font&gt;&lt;/h1&gt;&lt;p&gt;Document&amp;nbsp; Visual Question Answering&lt;br&gt;&lt;/p&gt;" style="text;html=1;strokeColor=none;fillColor=none;spacing=5;spacingTop=-20;whiteSpace=wrap;overflow=hidden;rounded=0;fontFamily=Times New Roman;" vertex="1" parent="ILywXmg6eYzzN-MGtZ7e-29">
          <mxGeometry x="290.43000000000006" y="194.40999999999997" width="117" height="91" as="geometry" />
        </mxCell>
      </root>
    </mxGraphModel>
  </diagram>
</mxfile>
